<mxfile host="app.diagrams.net" modified="2024-04-25T09:47:28.078Z" agent="Mozilla/5.0 (X11; Linux x86_64) AppleWebKit/537.36 (KHTML, like Gecko) Chrome/122.0.0.0 Safari/537.36" etag="UiFS_mdLcGV6pXrXZ9dd" version="24.3.0" type="github">
  <diagram name="Page-1" id="aytirlkzkVWf0SFRSCu_">
    <mxGraphModel dx="799" dy="470" grid="1" gridSize="10" guides="1" tooltips="1" connect="1" arrows="1" fold="1" page="1" pageScale="1" pageWidth="850" pageHeight="1100" math="0" shadow="0">
      <root>
        <mxCell id="0" />
        <mxCell id="1" parent="0" />
        <mxCell id="BUCHLlEqFk-VrpszOtE4-1" value="Server (EBIC controller)" style="rounded=0;whiteSpace=wrap;html=1;" vertex="1" parent="1">
          <mxGeometry x="260" y="250" width="90" height="50" as="geometry" />
        </mxCell>
        <mxCell id="BUCHLlEqFk-VrpszOtE4-11" style="edgeStyle=orthogonalEdgeStyle;rounded=0;orthogonalLoop=1;jettySize=auto;html=1;exitX=0;exitY=0.5;exitDx=0;exitDy=0;entryX=1;entryY=0;entryDx=0;entryDy=0;" edge="1" parent="1" source="BUCHLlEqFk-VrpszOtE4-2" target="BUCHLlEqFk-VrpszOtE4-1">
          <mxGeometry relative="1" as="geometry" />
        </mxCell>
        <mxCell id="BUCHLlEqFk-VrpszOtE4-2" value="Ephemeron client 1" style="rounded=0;whiteSpace=wrap;html=1;" vertex="1" parent="1">
          <mxGeometry x="400" y="214" width="80" height="30" as="geometry" />
        </mxCell>
        <mxCell id="BUCHLlEqFk-VrpszOtE4-14" style="edgeStyle=orthogonalEdgeStyle;rounded=0;orthogonalLoop=1;jettySize=auto;html=1;exitX=1;exitY=0.5;exitDx=0;exitDy=0;entryX=0;entryY=0.5;entryDx=0;entryDy=0;" edge="1" parent="1" source="BUCHLlEqFk-VrpszOtE4-5" target="BUCHLlEqFk-VrpszOtE4-1">
          <mxGeometry relative="1" as="geometry" />
        </mxCell>
        <mxCell id="BUCHLlEqFk-VrpszOtE4-5" value="Delmic driver client" style="rounded=0;whiteSpace=wrap;html=1;" vertex="1" parent="1">
          <mxGeometry x="140" y="260" width="80" height="30" as="geometry" />
        </mxCell>
        <mxCell id="BUCHLlEqFk-VrpszOtE4-13" style="edgeStyle=orthogonalEdgeStyle;rounded=0;orthogonalLoop=1;jettySize=auto;html=1;exitX=0;exitY=0.5;exitDx=0;exitDy=0;entryX=1;entryY=0.5;entryDx=0;entryDy=0;" edge="1" parent="1" source="BUCHLlEqFk-VrpszOtE4-6" target="BUCHLlEqFk-VrpszOtE4-1">
          <mxGeometry relative="1" as="geometry" />
        </mxCell>
        <mxCell id="BUCHLlEqFk-VrpszOtE4-6" value="Ephemeron client 2" style="rounded=0;whiteSpace=wrap;html=1;" vertex="1" parent="1">
          <mxGeometry x="400" y="260" width="80" height="30" as="geometry" />
        </mxCell>
        <mxCell id="BUCHLlEqFk-VrpszOtE4-12" style="edgeStyle=orthogonalEdgeStyle;rounded=0;orthogonalLoop=1;jettySize=auto;html=1;exitX=0;exitY=0.5;exitDx=0;exitDy=0;entryX=1;entryY=1;entryDx=0;entryDy=0;" edge="1" parent="1" source="BUCHLlEqFk-VrpszOtE4-7" target="BUCHLlEqFk-VrpszOtE4-1">
          <mxGeometry relative="1" as="geometry" />
        </mxCell>
        <mxCell id="BUCHLlEqFk-VrpszOtE4-7" value="Ephemeron client 3" style="rounded=0;whiteSpace=wrap;html=1;" vertex="1" parent="1">
          <mxGeometry x="400" y="305" width="80" height="30" as="geometry" />
        </mxCell>
      </root>
    </mxGraphModel>
  </diagram>
</mxfile>
